<svg width="47" height="75" viewBox="0 0 47 75" fill="none" xmlns="http://www.w3.org/2000/svg">
<path d="M37.4296 67.9258C37.4083 67.9516 37.3044 67.9188 37.1321 67.8343C36.9645 67.7427 36.7024 67.63 36.3766 67.4775C35.7132 67.1887 34.7169 66.8601 33.4467 66.576C30.9063 66.0056 27.2918 65.6535 23.2876 65.5385C21.6043 65.4892 19.9753 65.4774 18.4808 65.5056L18.5587 65.4962C17.187 65.7803 15.9239 66.0995 14.8285 66.4681C13.7354 66.8436 12.8122 67.2732 12.1063 67.7145C11.4004 68.1559 10.9141 68.6089 10.6473 68.9657C10.3734 69.3225 10.2979 69.5573 10.2459 69.5502C10.1916 69.5502 10.1704 69.2568 10.3876 68.8085C10.5977 68.3577 11.0675 67.792 11.7805 67.2498C12.4911 66.7075 13.4379 66.1887 14.557 65.7403C15.6784 65.299 16.9675 64.9234 18.3698 64.5995L18.4029 64.5924H18.4478C19.98 64.5267 21.6114 64.5197 23.3183 64.5666C27.3673 64.684 31.0433 65.1488 33.6214 65.9094C34.9081 66.2873 35.9162 66.731 36.556 67.1394C36.8724 67.3507 37.1085 67.5221 37.2478 67.6699C37.3918 67.8108 37.4532 67.8953 37.4319 67.9211L37.4296 67.9258Z" fill="black"/>
<path d="M17.4443 70.6371C17.4845 70.6324 17.5317 70.7145 17.6615 70.839C17.7937 70.961 18.0204 71.1089 18.3486 71.2451C19.0073 71.515 20.0508 71.7357 21.3564 71.8836C21.6822 71.9211 22.0269 71.9516 22.3834 71.9775C22.4731 71.9822 22.5628 71.9892 22.6525 71.9939C22.7304 71.9962 22.832 71.9939 22.9217 71.9939C23.1082 71.9939 23.2971 71.9939 23.4907 71.9939C24.2603 71.9939 25.0843 71.9399 25.9413 71.846C26.7936 71.7286 27.6789 71.5573 28.543 71.2545C28.9774 71.1089 29.3977 70.9141 29.7967 70.6911C29.995 70.576 30.1862 70.4516 30.3633 70.3131C30.4506 70.2427 30.538 70.1723 30.6159 70.0972C30.6584 70.0596 30.6915 70.022 30.7269 69.9845C30.7458 69.9657 30.7623 69.9469 30.7741 69.9305L30.8048 69.8929L30.7222 70.1652C30.7103 70.1324 30.7222 70.0948 30.7056 70.0666C30.6797 69.9657 30.5829 69.8436 30.4247 69.731C30.2689 69.6183 30.0705 69.522 29.8628 69.4399C29.4378 69.2779 28.9751 69.1676 28.5147 69.0854C27.5892 68.9211 26.6614 68.8483 25.7807 68.8131C25.344 68.7967 24.9025 68.7967 24.4822 68.7849C24.2698 68.7802 24.062 68.7755 23.8566 68.7709C23.6536 68.7709 23.4529 68.7779 23.2569 68.7802C23.061 68.7849 22.8674 68.7873 22.6761 68.792C22.4873 68.7967 22.3031 68.8155 22.1213 68.8248C21.9395 68.8366 21.7625 68.8483 21.5877 68.8601C21.4154 68.8812 21.2478 68.9 21.0825 68.9211C20.4215 68.9915 19.843 69.1277 19.3425 69.2638C18.8514 69.4234 18.4501 69.6065 18.1573 69.8061C17.8693 70.008 17.6969 70.2216 17.6025 70.3789C17.5057 70.5385 17.4797 70.6347 17.4467 70.6394C17.4136 70.6465 17.3711 70.522 17.4207 70.3108C17.4679 70.0995 17.6214 69.8014 17.9189 69.5173C18.2187 69.2403 18.6413 68.9821 19.1607 68.7568C19.6825 68.5572 20.294 68.3624 20.9786 68.245C21.151 68.2145 21.3257 68.1816 21.5051 68.1488C21.6845 68.1277 21.8687 68.1042 22.0576 68.0831C22.2464 68.0619 22.4377 68.0338 22.6336 68.0197C22.8296 68.0079 23.0279 67.9939 23.231 67.9821C23.434 67.9704 23.6394 67.9539 23.8495 67.9469C24.0573 67.9446 24.2674 67.9399 24.4822 67.9375C24.9119 67.9328 25.3487 67.9211 25.8091 67.9258C26.7251 67.9399 27.6836 67.9915 28.6847 68.1558C29.1852 68.2403 29.6975 68.353 30.2193 68.5455C30.479 68.6488 30.7434 68.7685 31.0055 68.954C31.2581 69.1347 31.5343 69.4094 31.65 69.8084C31.6925 69.9258 31.6925 70.0502 31.7043 70.1723L31.7185 70.3061L31.6217 70.4446C31.5839 70.4986 31.5603 70.5244 31.5343 70.5573C31.5083 70.5901 31.4824 70.6183 31.4564 70.6465C31.4045 70.7028 31.3525 70.7568 31.2982 70.8037C31.1943 70.9047 31.0834 70.9939 30.9724 71.0807C30.7505 71.2521 30.5215 71.4 30.2901 71.5315C29.8226 71.7897 29.3457 72.0033 28.8641 72.1559C27.9032 72.4775 26.9518 72.6371 26.0499 72.7357C25.1433 72.8085 24.2886 72.8366 23.4859 72.7991C23.2853 72.7897 23.0893 72.7803 22.8957 72.7733C22.7965 72.7686 22.7115 72.7662 22.6029 72.7568C22.5085 72.7451 22.4141 72.7357 22.322 72.7239C21.9537 72.677 21.6019 72.623 21.269 72.5643C19.9351 72.3225 18.8656 71.9939 18.1904 71.5854C17.8551 71.3812 17.6238 71.1559 17.5199 70.9657C17.4184 70.7732 17.4278 70.6441 17.4561 70.6465L17.4443 70.6371Z" fill="black"/>
<path d="M4.73311 5.93916C4.74727 5.93916 4.7638 5.99784 4.78505 6.09878C4.79449 6.15043 4.8063 6.21381 4.81574 6.28658C4.82754 6.35935 4.85587 6.44621 4.87712 6.5448C4.981 6.92743 5.18168 7.50021 5.70817 8.05421C6.2134 8.61994 7.0232 9.13873 8.0384 9.573C9.06304 10.0002 10.2978 10.343 11.6955 10.6059C14.4955 11.127 17.9377 11.3547 21.8097 11.3524C25.6792 11.343 29.9973 11.1341 34.5586 10.6622L34.4996 10.6716C35.8807 10.3312 37.2808 9.92512 38.5934 9.32417C39.2474 9.0237 39.8778 8.66924 40.4161 8.22792C40.952 7.79129 41.3722 7.24199 41.4761 6.64809C41.5233 6.357 41.4974 6.06123 41.4029 5.77249C41.3581 5.62695 41.2896 5.48845 41.2141 5.3523C41.1763 5.28422 41.1338 5.21849 41.0889 5.15746C41.0488 5.09877 40.9898 5.026 40.9614 4.99549L41.0653 5.07765C40.7065 4.88281 40.35 4.68797 39.9935 4.49548C39.814 4.39924 39.6393 4.30064 39.4599 4.20675C39.2757 4.12224 39.094 4.03773 38.9122 3.95087C38.5462 3.7842 38.1874 3.6058 37.8214 3.44852C37.4508 3.30063 37.0825 3.15509 36.7141 3.00955C35.2339 2.46025 33.7488 1.99545 32.2662 1.68324C30.7859 1.35695 29.3221 1.12925 27.8914 0.997788C27.176 0.934407 26.4701 0.889806 25.7736 0.873374C25.0819 0.849899 24.3878 0.859289 23.7409 0.899196H23.7055H23.6842C20.6245 0.774781 17.8079 0.83112 15.336 1.11516C12.8641 1.39216 10.7464 1.92738 9.10317 2.61048C7.45289 3.28185 6.31492 4.13163 5.65151 4.80534C4.981 5.48141 4.77088 5.96029 4.73075 5.94151C4.68589 5.93212 4.82282 5.39455 5.45791 4.63163C6.08592 3.87341 7.2286 2.92269 8.90249 2.16212C10.5693 1.38981 12.7295 0.774781 15.2439 0.434402C17.7607 0.0822849 20.6197 -0.028045 23.722 0.0588105H23.6677C24.3807 0.00716669 25.0748 -0.00926542 25.7925 0.00481925C26.5079 0.014209 27.2327 0.0517681 27.9693 0.110454C29.4401 0.230174 30.9441 0.450834 32.4668 0.774781C33.9944 1.08699 35.5266 1.55648 37.0565 2.11517C37.4366 2.26541 37.8167 2.4133 38.2015 2.56588C38.5816 2.72551 38.9523 2.90861 39.33 3.07997C39.5189 3.16683 39.7078 3.25368 39.8967 3.34289C40.0832 3.43678 40.265 3.54007 40.4491 3.63866C40.8174 3.8382 41.1881 4.04008 41.5611 4.24196L41.6178 4.27247L41.665 4.32412C41.7618 4.42975 41.8185 4.50487 41.8846 4.59642C41.9483 4.68562 42.0073 4.77717 42.0593 4.87107C42.1655 5.05887 42.26 5.2584 42.3284 5.46967C42.4677 5.88752 42.5126 6.357 42.437 6.80771C42.3567 7.26781 42.1608 7.69035 41.9105 8.04951C41.6626 8.41337 41.3557 8.7068 41.0417 8.97206C40.4043 9.49319 39.7054 9.87582 39.0019 10.1998C37.59 10.8406 36.1452 11.2514 34.7239 11.5942L34.6932 11.6012H34.6649C30.0445 12.0566 25.7123 12.2233 21.8049 12.1763C17.9 12.1223 14.42 11.8219 11.5751 11.2068C10.1538 10.8946 8.89305 10.5002 7.8448 10.012C6.80363 9.51432 5.96551 8.92276 5.45791 8.27252C5.32098 8.11994 5.22654 7.94857 5.12502 7.79834C5.04475 7.63401 4.95267 7.49082 4.90545 7.34058C4.84879 7.19504 4.79921 7.05889 4.77324 6.92978C4.74019 6.80302 4.71658 6.68565 4.7095 6.58001C4.70005 6.47438 4.68589 6.38517 4.68825 6.30301C4.69061 6.22085 4.69533 6.15278 4.69769 6.09878C4.70714 5.9908 4.71658 5.93916 4.73311 5.94151V5.93916Z" fill="black"/>
<path d="M8.32167 6.37579C8.35944 6.37814 8.23904 6.57063 8.34764 6.88988C8.4586 7.20913 8.84579 7.58238 9.43602 7.9298C10.0239 8.27957 10.8077 8.62934 11.7544 8.95094L11.8442 8.97911C11.8607 8.9838 11.8725 8.98849 11.8819 8.99084L11.9292 9.00023C11.9929 9.01432 12.0543 9.02605 12.118 9.04014C12.2455 9.06596 12.3754 9.09413 12.5076 9.1223C12.772 9.17864 13.0435 9.23732 13.3245 9.29601C13.6078 9.35 13.8911 9.42981 14.1956 9.46972C14.4978 9.51432 14.8095 9.55892 15.1306 9.60587C17.6851 9.98616 20.8322 10.1505 24.4161 9.9486C26.2057 9.83123 28.1062 9.64578 30.0917 9.34061C32.0725 9.0331 34.1572 8.62699 36.2585 8.06125L36.223 8.07299C36.6881 7.89224 37.1462 7.68801 37.5758 7.44622C38.0055 7.20678 38.4093 6.91805 38.6973 6.58002C38.8366 6.411 38.9428 6.23025 38.983 6.05654C39.0231 5.88283 39.0113 5.7232 38.9334 5.56827C38.8602 5.41568 38.7233 5.27014 38.5556 5.17155C38.3904 5.06826 38.1897 5.01662 38.0457 5.0307L37.9961 5.03775L37.9323 5.05418C37.904 5.05887 37.8757 5.08939 37.9418 5.03305C37.9678 5.00958 37.9796 4.98845 38.0008 4.95089C38.0221 4.91098 38.0291 4.86638 38.0339 4.83117C38.0339 4.81474 38.0339 4.79126 38.0315 4.77718C38.0315 4.76779 38.0315 4.75605 38.0268 4.74666C38.0173 4.72084 38.0197 4.72319 38.0173 4.71615C38.0103 4.70676 38.0386 4.74901 38.0716 4.78892C38.1448 4.87812 38.2464 4.9861 38.3526 5.1246C38.4518 5.2631 38.584 5.44385 38.6076 5.74433C38.6194 5.89456 38.5769 6.05419 38.5131 6.18095C38.447 6.30302 38.362 6.40161 38.2841 6.46969C38.1236 6.61053 37.9654 6.69739 37.8143 6.76781C37.6656 6.83589 37.5239 6.88284 37.3799 6.94152L36.9573 7.07767C35.8382 7.41101 34.7144 7.65515 33.567 7.89928C31.2769 8.37581 28.9254 8.8007 26.5102 9.17864C25.9105 9.27019 25.2896 9.36643 24.6616 9.41808C24.036 9.47676 23.4103 9.50493 22.78 9.51902C21.5216 9.54484 20.2561 9.50728 18.986 9.40869C18.0439 9.33592 17.109 9.23498 16.1765 9.073C15.709 8.98615 15.251 8.91807 14.7387 8.71854C14.6112 8.66689 14.4766 8.60821 14.3231 8.49318C14.2452 8.42746 14.1602 8.35938 14.0776 8.21619C13.995 8.08003 13.9643 7.84764 14.0233 7.68332C14.0776 7.51665 14.1602 7.4204 14.2311 7.34528C14.3042 7.27017 14.3727 7.21852 14.4388 7.17392C14.5758 7.08472 14.6867 7.02603 14.8402 6.965L14.9016 6.94152L14.9771 6.93448C18.8797 6.61992 22.6666 6.29598 26.2977 5.95794C28.1109 5.78658 29.8863 5.61522 31.6145 5.42507C32.4786 5.32883 33.3309 5.23258 34.1667 5.12225C34.5846 5.06592 34.9977 5.00723 35.4038 4.9415C35.6045 4.90629 35.8075 4.87342 35.9988 4.83117C36.0979 4.81239 36.1923 4.79126 36.275 4.76779C36.3151 4.75605 36.3718 4.74432 36.3954 4.73493C36.4143 4.72554 36.4355 4.71849 36.4568 4.7138L36.3222 4.84291C36.3222 4.84291 36.3222 4.83587 36.3246 4.83821C36.3151 4.8476 36.3246 4.8523 36.3175 4.86873C36.3175 4.88516 36.3222 4.89925 36.3222 4.90629C36.3293 4.91803 36.3269 4.91803 36.3269 4.91568C36.3222 4.90159 36.2443 4.83352 36.1546 4.78187C35.9657 4.67389 35.7225 4.58234 35.477 4.50722C34.9812 4.35464 34.4594 4.24431 33.94 4.14806C32.9012 3.95792 31.8648 3.82881 30.8519 3.71848C28.8239 3.50017 26.8856 3.36402 25.0606 3.25604C24.1493 3.20204 23.2639 3.15744 22.4093 3.11988C22.1968 3.11049 21.9843 3.10345 21.7742 3.09406C21.5664 3.09406 21.361 3.09406 21.1556 3.09406C20.7448 3.09406 20.3435 3.09641 19.9468 3.09641C19.5526 3.09171 19.1654 3.1058 18.7876 3.12458C18.4099 3.14101 18.0392 3.1551 17.6756 3.16918C16.9508 3.20674 16.2662 3.27951 15.6098 3.3335C14.3113 3.50017 13.1474 3.66919 12.1723 3.95088C12.0496 3.98374 11.9292 4.01426 11.8111 4.04478C11.6931 4.07764 11.5821 4.11989 11.4711 4.15745C11.2516 4.23492 11.0344 4.30065 10.8337 4.37811C10.6377 4.46497 10.4512 4.54713 10.2718 4.6246C10.09 4.69737 9.94126 4.803 9.78544 4.88281C9.18341 5.23024 8.79622 5.60348 8.59082 5.89222C8.38305 6.1833 8.34764 6.37344 8.32403 6.36875C8.30042 6.36875 8.29098 6.15748 8.47277 5.82179C8.6522 5.48846 9.03467 5.05653 9.64143 4.65746C9.79725 4.56591 9.95071 4.44619 10.1325 4.35933C10.3143 4.27013 10.5032 4.17389 10.7015 4.07529C10.9045 3.98609 11.1217 3.90863 11.346 3.81942C11.4593 3.77717 11.5727 3.72787 11.6931 3.69031C11.8135 3.6551 11.9362 3.61754 12.059 3.57998C13.0506 3.25134 14.2263 3.04242 15.5437 2.83584C16.2048 2.76307 16.9013 2.67387 17.6331 2.61518C17.9991 2.59171 18.3745 2.56823 18.7569 2.54241C19.1394 2.51659 19.5313 2.49312 19.9303 2.48842C20.3293 2.47903 20.7378 2.46964 21.1533 2.46025C21.3634 2.45556 21.5735 2.45086 21.786 2.44617C21.9961 2.45086 22.211 2.45556 22.4258 2.46025C23.2852 2.48138 24.1729 2.5119 25.0913 2.5518C26.9257 2.63162 28.8759 2.74195 30.9275 2.93678C31.9545 3.03772 33.0051 3.1551 34.0817 3.34054C34.62 3.43444 35.1653 3.54242 35.7202 3.70674C35.9988 3.79125 36.2797 3.8875 36.5748 4.04947C36.7212 4.13867 36.8817 4.23022 37.0352 4.44619C37.1084 4.55182 37.1745 4.7138 37.1674 4.88516C37.1698 4.97202 37.1462 5.04244 37.1249 5.11991C37.0989 5.18563 37.0683 5.24197 37.0352 5.30301L36.9856 5.39221L36.903 5.43446C36.8298 5.46968 36.7542 5.50254 36.6787 5.53306C36.6079 5.55888 36.563 5.56827 36.5016 5.5847C36.3859 5.61991 36.2797 5.64339 36.1735 5.66451C35.9586 5.71381 35.7509 5.74667 35.5407 5.78658C35.1205 5.857 34.7002 5.92038 34.2776 5.98142C33.4324 6.10114 32.5754 6.20443 31.709 6.30537C29.9737 6.50725 28.1959 6.69035 26.3804 6.8711C22.7469 7.22791 18.9576 7.56594 15.0479 7.8852L15.1825 7.85468C15.1235 7.87815 15.0314 7.9251 14.9795 7.96266C14.9511 7.98144 14.9299 8.00022 14.9228 8.00726C14.9181 8.00726 14.9228 8.01431 14.9157 8.00726L14.8355 7.94623C14.8095 7.9298 14.7812 7.91571 14.767 7.90632C14.7457 7.89693 14.7221 7.88754 14.7127 7.8852C14.6513 7.86642 14.6655 7.89224 14.7387 7.85233C14.7623 7.84059 14.7717 7.8312 14.7953 7.81243C14.8236 7.79365 14.8473 7.77252 14.8685 7.75139C14.8756 7.742 14.8945 7.72322 14.9039 7.71618C14.9039 7.71618 14.9039 7.71853 14.9086 7.72322C14.937 7.74435 15.0125 7.7866 15.0975 7.81712C15.4398 7.95327 15.8979 8.03543 16.337 8.1129C17.2223 8.26548 18.136 8.36407 19.0544 8.4345C20.2939 8.53074 21.531 8.5683 22.754 8.54483C23.3631 8.53309 23.9699 8.50492 24.5695 8.44858C25.1668 8.40163 25.7547 8.31008 26.3591 8.22088C28.7531 7.85233 31.0998 7.43683 33.371 6.97439C34.5019 6.7373 35.6281 6.49786 36.6834 6.19034L37.0706 6.06827C37.1863 6.02133 37.3138 5.97907 37.4224 5.93212C37.5286 5.88517 37.616 5.82883 37.6656 5.78658C37.701 5.7678 37.6845 5.74433 37.7128 5.75841C37.7671 5.79128 37.8096 5.78189 37.7435 5.78423C37.7435 5.78423 37.701 5.78658 37.6939 5.78893C37.6939 5.78893 37.6939 5.78893 37.6939 5.78658C37.6939 5.78189 37.6892 5.7725 37.6845 5.76076C37.6703 5.73494 37.6514 5.69738 37.6183 5.65747C37.557 5.57296 37.4696 5.47907 37.3681 5.35465C37.3161 5.28657 37.2571 5.22085 37.191 5.08469C37.1745 5.04479 37.1603 5.01662 37.1462 4.95793C37.1391 4.93211 37.1344 4.90394 37.1296 4.87812C37.1249 4.8476 37.1249 4.8077 37.1296 4.77483C37.1296 4.70676 37.1532 4.62694 37.1863 4.55652C37.2193 4.4861 37.2595 4.4415 37.3043 4.38985C37.3445 4.35229 37.3799 4.32647 37.42 4.2983C37.4578 4.27483 37.4838 4.26309 37.5168 4.24666C37.5853 4.21379 37.6254 4.20675 37.6797 4.18562L37.8167 4.15276C37.8662 4.14337 37.9205 4.13867 37.9701 4.13163C38.3786 4.10581 38.7256 4.22553 39.0255 4.40628C39.3229 4.58938 39.5803 4.84995 39.7408 5.18329C39.9061 5.51428 39.9344 5.92039 39.8447 6.26546C39.7573 6.61523 39.5732 6.89927 39.3749 7.13636C38.9664 7.60585 38.4872 7.9251 38.0032 8.19271C37.5192 8.46032 37.0234 8.67159 36.5276 8.85939L36.5063 8.86643H36.4922C27.8158 11.0378 20.2065 11.0073 15.0503 10.0894C14.7269 10.0331 14.4128 9.97677 14.1083 9.92278C13.8014 9.87348 13.511 9.78193 13.2253 9.71855C12.942 9.64813 12.6658 9.58005 12.399 9.51198C12.2668 9.47911 12.1346 9.44625 12.0071 9.41338C11.9433 9.39695 11.8796 9.38052 11.8158 9.36643L11.7686 9.3547C11.7474 9.35 11.7308 9.34061 11.7167 9.33592L11.6246 9.30305C10.6661 8.93685 9.8846 8.54248 9.29437 8.14107C8.7065 7.74435 8.3075 7.30772 8.22015 6.91805C8.17293 6.72556 8.21543 6.57532 8.24376 6.48847C8.28626 6.40631 8.31223 6.36405 8.32403 6.3664L8.32167 6.37579Z" fill="black"/>
<path d="M41.9885 5.74905C42.0499 5.74436 42.142 6.32652 42.26 7.38992C42.3781 8.45331 42.5221 10.0003 42.6826 11.9322L42.6968 12.1012L42.5575 12.2022C42.312 12.3782 42.0617 12.5613 41.802 12.7491C41.5399 12.9322 41.2826 13.1412 40.9875 13.3031C40.6971 13.4768 40.3996 13.6529 40.095 13.8337C39.9463 13.9299 39.7834 14.005 39.6205 14.0825C39.4576 14.1623 39.2923 14.2421 39.1271 14.3219C38.9594 14.4017 38.7918 14.4839 38.6218 14.5661C38.4519 14.6482 38.2701 14.7069 38.0906 14.782C37.7318 14.9182 37.3682 15.0731 36.9904 15.1999C36.608 15.3172 36.2208 15.4346 35.8265 15.5567C35.4322 15.6764 35.0191 15.7539 34.6083 15.8571C32.9485 16.2234 31.166 16.4487 29.308 16.5614C27.45 16.6623 25.5211 16.667 23.5474 16.6295C21.7507 16.5966 20.006 16.5285 18.3203 16.4722C17.4774 16.4417 16.6558 16.4252 15.8319 16.3736C15.4211 16.3501 15.0173 16.3337 14.616 16.3032C14.2146 16.2609 13.8204 16.221 13.4284 16.1811C11.8679 15.9886 10.3876 15.714 9.04185 15.2609C7.70557 14.8055 6.48734 14.1905 5.58546 13.3289C5.12509 12.9135 4.76623 12.4181 4.52541 11.9017C4.49472 11.836 4.46639 11.7726 4.4357 11.7092C4.40973 11.6435 4.39084 11.5754 4.36959 11.5073C4.34834 11.4416 4.32709 11.3735 4.30821 11.3078C4.28932 11.2421 4.28224 11.1716 4.26807 11.1036C4.25627 11.0355 4.24446 10.9698 4.23266 10.9017C4.2303 10.8336 4.22557 10.7655 4.22321 10.6975C4.21377 10.5566 4.22557 10.4486 4.22794 10.3266C4.27279 9.38994 4.34834 8.5965 4.41209 7.94626C4.54666 6.64578 4.66471 5.92981 4.73081 5.9345C4.79928 5.93919 4.80872 6.66221 4.78983 7.96739C4.78275 8.61763 4.76386 9.41811 4.77095 10.336C4.77567 10.4463 4.77095 10.5754 4.78511 10.6716C4.78983 10.7233 4.79456 10.7749 4.79928 10.8289C4.81108 10.8829 4.82289 10.9346 4.83705 10.9885C4.85122 11.0425 4.8583 11.0965 4.87719 11.1505C4.89608 11.2045 4.91732 11.2585 4.93857 11.3125C4.95982 11.3665 4.97635 11.4205 4.99996 11.4745L5.08259 11.6317C5.30452 12.0543 5.6256 12.4698 6.05057 12.8219C6.87217 13.5543 8.01249 14.0966 9.28975 14.4933C10.5717 14.89 12.0072 15.1271 13.5229 15.2914C13.903 15.3243 14.2902 15.3595 14.6797 15.3947C15.0716 15.4205 15.4683 15.4299 15.8696 15.4487C16.6653 15.4886 17.5034 15.498 18.3462 15.5215C20.0343 15.5637 21.7814 15.6271 23.5639 15.6576C25.5258 15.6952 27.4311 15.6975 29.2537 15.613C31.074 15.5168 32.8116 15.3219 34.4194 14.9956C34.8184 14.9041 35.2197 14.836 35.6022 14.728C35.9847 14.62 36.3601 14.5144 36.7307 14.4088C37.0967 14.2937 37.4461 14.1553 37.7955 14.0332C37.9679 13.9675 38.1449 13.9158 38.3102 13.8407C38.4755 13.7656 38.6384 13.6928 38.8013 13.62C38.9642 13.5473 39.1247 13.4745 39.2829 13.4041C39.4411 13.3336 39.6016 13.2656 39.7456 13.1787C40.0431 13.0144 40.3359 12.8548 40.6192 12.6975C40.9096 12.5519 41.1645 12.3618 41.4242 12.1951C41.6816 12.0238 41.9318 11.8595 42.175 11.6975L42.0499 11.9674C41.9743 10.0331 41.9295 8.47913 41.9177 7.40869C41.9059 6.33826 41.9295 5.7514 41.9885 5.7467V5.74905Z" fill="black"/>
<path d="M42.1112 7.73966C42.1042 7.72088 42.208 7.64811 42.4394 7.57534C42.5551 7.53778 42.7038 7.50257 42.888 7.49787C43.0721 7.48614 43.2917 7.51665 43.5207 7.61055C43.9882 7.79365 44.4179 8.27488 44.6941 8.89226C44.9798 9.51433 45.1663 10.2538 45.2489 11.12L45.2442 11.0801C45.3221 11.4134 45.426 11.7585 45.5842 12.0801C45.6621 12.2397 45.7589 12.3923 45.8675 12.5284C45.9218 12.5965 45.9832 12.6552 46.0445 12.7115C46.0752 12.7374 46.1083 12.7608 46.139 12.782C46.1555 12.7937 46.1697 12.8008 46.1838 12.8078C46.1933 12.8125 46.2216 12.8242 46.2027 12.8172L46.4081 13.0472C46.4955 13.4346 46.5238 13.8501 46.479 14.2749C46.453 14.4862 46.4105 14.6998 46.3444 14.9111C46.2735 15.1271 46.2027 15.3196 46.0587 15.552L46.0422 15.5801L46.0091 15.6106C44.8688 16.6529 43.3909 17.451 41.7595 18.0778C40.1281 18.7163 38.3314 19.2046 36.4285 19.6083C32.6203 20.4135 28.3872 20.8783 23.9416 21.1107C22.806 21.1694 21.6846 21.2093 20.5773 21.2304C20.3011 21.2351 20.0248 21.2375 19.7486 21.2422H19.3354C19.1773 21.2469 19.0545 21.2304 18.9128 21.2234C18.3651 21.1882 17.8221 21.1553 17.2838 21.1201C17.0147 21.1013 16.7455 21.0872 16.4811 21.0661C16.2167 21.0379 15.9522 21.0098 15.6902 20.9816C15.1661 20.9253 14.6443 20.8689 14.1296 20.8149C13.6173 20.7351 13.1097 20.6576 12.6092 20.5802C12.3589 20.5379 12.1087 20.5098 11.8631 20.4581C11.6176 20.4065 11.3721 20.3572 11.1289 20.3079C9.18584 19.9135 7.35612 19.3924 5.72709 18.6647C5.32809 18.4675 4.92674 18.2914 4.54899 18.0825C4.17596 17.8642 3.80058 17.6694 3.4606 17.4252C2.76413 16.9722 2.14557 16.4487 1.61436 15.9064C1.48451 15.7726 1.35702 15.6412 1.23189 15.5097L1.05246 15.3266L0.894282 15.1928C0.783318 15.12 0.679438 15.0167 0.60861 14.8923C0.542504 14.7656 0.509451 14.6341 0.502369 14.5144C0.488203 14.2749 0.540143 14.0848 0.589723 13.9064C0.698325 13.5543 0.83998 13.2585 0.972192 12.9721C1.10676 12.6857 1.23662 12.4158 1.3523 12.1529C1.58839 11.627 1.77018 11.1294 1.87406 10.6622C1.9024 10.5425 1.91656 10.4345 1.94017 10.3125C1.9685 10.1857 1.99447 10.0636 2.02044 9.94391C2.06294 9.82654 2.10307 9.71386 2.14321 9.60353C2.19751 9.50024 2.25181 9.39696 2.30375 9.29836C2.5422 8.91573 2.85385 8.65517 3.14188 8.48615C3.43227 8.31479 3.69906 8.22323 3.91626 8.16455C4.35303 8.05657 4.59385 8.08239 4.59621 8.11291C4.60093 8.14812 4.37192 8.18802 3.97764 8.35C3.78169 8.43216 3.5456 8.54718 3.30242 8.72559C3.05925 8.90399 2.81135 9.15048 2.63428 9.48616C2.59651 9.57302 2.55637 9.66222 2.51623 9.75377C2.4879 9.85001 2.45957 9.94861 2.42888 10.0495C2.41235 10.1552 2.39583 10.2608 2.3793 10.3711C2.36277 10.4885 2.35097 10.6223 2.32972 10.7491C2.24473 11.2679 2.07474 11.8078 1.85518 12.3618C1.74657 12.6388 1.62617 12.9205 1.50576 13.2069C1.38771 13.4932 1.26259 13.7867 1.18704 14.0754C1.14926 14.2163 1.12565 14.3618 1.13746 14.4651C1.15398 14.5707 1.17523 14.6012 1.24842 14.6482C1.32161 14.7022 1.42549 14.7796 1.50576 14.8477C1.57423 14.9135 1.64033 14.9768 1.7088 15.0426C1.83629 15.167 1.96614 15.2937 2.09835 15.4228C2.61775 15.9229 3.2009 16.3923 3.8714 16.8031C4.19485 17.0238 4.55607 17.2022 4.91493 17.3994C5.27615 17.5895 5.6657 17.7492 6.04817 17.9299C7.61819 18.5942 9.40068 19.0731 11.3036 19.4346C11.542 19.4816 11.7805 19.5262 12.0213 19.5731C12.2621 19.6201 12.5077 19.6459 12.7532 19.6835C13.2443 19.7539 13.7424 19.8243 14.2453 19.8971C14.7529 19.9464 15.2628 19.998 15.7799 20.0473C16.0372 20.0731 16.2969 20.099 16.559 20.1248C16.8211 20.1436 17.0831 20.1553 17.3452 20.1717C17.8717 20.2022 18.4029 20.2328 18.9388 20.2633C19.0687 20.268 19.2174 20.2844 19.3307 20.2821H19.7368C20.0083 20.275 20.2822 20.2703 20.556 20.2656C21.6515 20.2398 22.7659 20.1999 23.8897 20.1412C28.2975 19.9112 32.4929 19.4745 36.2444 18.7304C38.1189 18.3572 39.8825 17.9041 41.4691 17.3196C43.058 16.7468 44.4698 16.0168 45.5322 15.0989L45.4803 15.1576C45.511 15.1106 45.5606 15.0214 45.596 14.944C45.6337 14.8642 45.6668 14.782 45.6951 14.6975C45.7518 14.5308 45.7943 14.3595 45.8203 14.1857C45.8675 13.8407 45.858 13.4956 45.7966 13.1693L46.002 13.3994C45.8887 13.3547 45.8533 13.3242 45.7896 13.282C45.7329 13.2421 45.6857 13.2022 45.6361 13.1599C45.5464 13.0731 45.4638 12.9839 45.3953 12.89C45.256 12.7045 45.1474 12.5097 45.0624 12.3172C44.89 11.9298 44.7956 11.5449 44.7271 11.1787L44.7224 11.1575V11.1388C44.6823 10.35 44.5406 9.61762 44.3187 9.04484C44.1015 8.46502 43.7686 8.04483 43.405 7.85703C43.0414 7.66454 42.692 7.68802 42.4701 7.70914C42.2435 7.73497 42.1231 7.76079 42.1136 7.73497L42.1112 7.73966Z" fill="black"/>
<path d="M19.2409 20.7633C19.2409 20.7469 19.3944 20.7305 19.6919 20.7117C19.9917 20.6953 20.4356 20.6718 21.014 20.6413C22.1756 20.5802 23.8896 20.491 26.0923 20.3079C28.2927 20.1178 30.9865 19.8478 34.077 19.3173C35.621 19.0497 37.2619 18.707 38.9688 18.2304C39.8187 17.9863 40.6899 17.7187 41.554 17.376C42.4181 17.0379 43.2869 16.6459 44.1132 16.1482L44.7129 15.7867L44.6279 16.4792C42.9163 30.3174 40.5742 48.8435 37.9111 69.5526L37.8922 69.7052L37.7883 69.8155C36.4827 71.2052 34.8112 72.1395 33.0901 72.8531C31.3572 73.5574 29.544 74.048 27.7001 74.4095C26.8762 74.5691 26.0522 74.7029 25.2259 74.8085C24.8127 74.8625 24.3995 74.9071 23.984 74.947C23.7763 74.9658 23.5685 74.9846 23.3584 74.9963C23.2899 75.0034 23.2356 74.9987 23.186 74.9963L23.0302 74.9916L22.7186 74.9846C22.3031 74.9752 21.8899 74.9635 21.4744 74.9541C21.2666 74.947 21.0612 74.9494 20.8558 74.933L20.2396 74.8837C19.8288 74.8508 19.4204 74.8203 19.0119 74.7874C18.6035 74.7428 18.1974 74.6771 17.7913 74.6231C16.1741 74.3743 14.5592 74.0245 13.0577 73.3062C12.6917 73.1066 12.3093 72.9447 11.9693 72.6911L11.7072 72.5151C11.6199 72.4564 11.5325 72.4001 11.4546 72.3249L10.973 71.9071L10.5433 71.4235C10.4182 71.2451 10.2883 71.0691 10.1797 70.8766C10.0782 70.6794 9.97432 70.4846 9.90586 70.2639C9.86336 70.1606 9.83739 70.0456 9.81378 69.9305C9.79961 69.8742 9.78781 69.8155 9.78073 69.7522C9.77364 69.6911 9.7642 69.6348 9.7642 69.5409L9.76892 69.6136C6.71861 47.9585 4.12632 29.2353 2.42646 16.6107L2.36035 16.1107L2.82545 16.3079C2.95294 16.3619 3.08043 16.4159 3.20556 16.4699L3.23861 16.4839L3.26458 16.5027C4.30339 17.2727 5.41774 17.8314 6.49905 18.2774C7.58271 18.721 8.64276 19.0403 9.64143 19.3056C11.6411 19.8173 13.3953 20.0873 14.8237 20.2751C15.1802 20.3197 15.5178 20.3619 15.8341 20.4018C16.1505 20.4347 16.448 20.4652 16.7218 20.491C16.9957 20.5192 17.2483 20.545 17.4797 20.5708C17.7111 20.5896 17.9212 20.6084 18.1077 20.6248C18.8561 20.6906 19.2457 20.7375 19.2457 20.7633C19.2457 20.7891 18.8537 20.7938 18.1006 20.7798C17.9117 20.7751 17.7016 20.7704 17.4679 20.7633C17.2342 20.7516 16.9792 20.7375 16.7029 20.7211C16.4267 20.7046 16.1269 20.6859 15.8082 20.6671C15.4894 20.6389 15.1495 20.6084 14.7882 20.5755C13.3481 20.4323 11.5727 20.2093 9.53519 19.7305C8.51763 19.484 7.43397 19.1788 6.31253 18.7445C5.19582 18.3079 4.03188 17.7516 2.92697 16.9558L2.986 16.9886C2.85851 16.937 2.72866 16.883 2.5988 16.829L2.99544 16.5285C4.88182 29.1273 7.61104 47.8317 10.7157 69.4845L10.7204 69.5573L10.7298 69.6348C10.7322 69.6676 10.7393 69.7029 10.7511 69.7428C10.7676 69.8179 10.7841 69.893 10.8148 69.9681C10.8597 70.1207 10.9423 70.2686 11.0178 70.4165C11.1005 70.562 11.2067 70.7005 11.3012 70.8414L11.6506 71.2334L12.0567 71.5855C12.1204 71.6489 12.1983 71.6982 12.2739 71.7475L12.5029 71.9001C12.7933 72.1207 13.1474 72.2663 13.4732 72.447C14.8355 73.0973 16.3795 73.4376 17.9353 73.6747C18.3273 73.7264 18.7168 73.7897 19.1134 73.832C19.5101 73.8625 19.9091 73.893 20.3081 73.9236L20.9077 73.9705C21.1084 73.9846 21.3067 73.9822 21.5074 73.9893C21.9088 73.9987 22.3078 74.0081 22.7091 74.0175L23.0113 74.0245L23.1624 74.0292C23.2144 74.0292 23.2639 74.0339 23.297 74.0292L23.8943 73.9799C24.2957 73.9423 24.6994 73.8977 25.1007 73.8461C25.9058 73.7428 26.7109 73.6113 27.5136 73.4564C29.3079 73.1043 31.0668 72.6278 32.7194 71.9564C34.3603 71.2803 35.9185 70.393 37.0753 69.1606L36.9526 69.4235C39.644 48.719 42.0899 30.2047 43.9551 16.3877L44.4674 16.721C43.5891 17.2375 42.6825 17.6318 41.7877 17.9699C40.8929 18.3102 40.0029 18.5732 39.1341 18.8103C37.3941 19.2704 35.7296 19.592 34.169 19.8384C31.0455 20.322 28.3352 20.5403 26.1207 20.6741C23.9061 20.8009 22.185 20.8314 21.0211 20.8291C20.4379 20.8291 19.9941 20.8197 19.6942 20.8056C19.3968 20.7915 19.2433 20.7751 19.2433 20.7586L19.2409 20.7633Z" fill="black"/>
</svg>
