<svg width="192" height="222" viewBox="0 0 192 222" fill="none" xmlns="http://www.w3.org/2000/svg">
<g opacity="0.4">
<path d="M91.6251 195.397C91.5473 195.43 91.354 195.235 91.0686 194.844C90.802 194.443 90.3493 193.883 89.8013 193.16C88.6596 191.737 86.8217 189.834 84.32 187.71C79.3193 183.458 71.6642 178.436 62.8609 173.489C59.1611 171.408 55.5383 169.474 52.1691 167.787L52.3541 167.857C48.9583 166.887 45.7636 166.122 42.8852 165.665C40.0038 165.226 37.4384 165.107 35.344 165.269C33.2497 165.431 31.6317 165.876 30.617 166.362C29.5864 166.841 29.1419 167.278 29.0343 167.201C28.913 167.138 29.2104 166.456 30.222 165.706C31.2206 164.943 32.9341 164.226 35.1628 163.846C37.3863 163.464 40.1092 163.411 43.1341 163.717C46.156 164.042 49.4749 164.711 52.986 165.627L53.0681 165.65L53.1682 165.703C56.6659 167.35 60.3159 169.245 64.0712 171.349C72.9719 176.353 80.6317 181.699 85.4932 186.422C87.9215 188.775 89.6507 190.949 90.599 192.613C91.057 193.457 91.3827 194.117 91.5199 194.611C91.6759 195.096 91.7137 195.357 91.6359 195.39L91.6251 195.397Z" fill="black"/>
<path d="M43.8265 178.065C43.9216 178.102 43.9305 178.341 44.0742 178.772C44.2259 179.2 44.5581 179.797 45.1307 180.486C46.284 181.862 48.3542 183.578 51.0949 185.438C51.7781 185.904 52.5117 186.376 53.2772 186.851C53.4719 186.967 53.6639 187.088 53.8587 187.203C54.0298 187.3 54.2592 187.414 54.4595 187.519C54.8758 187.737 55.2975 187.958 55.7296 188.185C57.4478 189.086 59.3505 189.93 61.374 190.724C63.4144 191.459 65.5921 192.112 67.8769 192.446C69.0176 192.628 70.1846 192.684 71.3373 192.652C71.9152 192.627 72.4882 192.572 73.0462 192.469C73.324 192.414 73.6017 192.358 73.8639 192.281C74.0029 192.247 74.1208 192.201 74.244 192.159C74.3082 192.139 74.3672 192.116 74.4128 192.093L74.5255 192.045L74.0211 192.558C74.0333 192.471 74.1038 192.4 74.1 192.318C74.1606 192.061 74.088 191.675 73.8672 191.237C73.6518 190.802 73.3222 190.354 72.9549 189.927C72.1966 189.067 71.2932 188.278 70.362 187.555C68.4891 186.103 66.5034 184.853 64.5789 183.743C63.6232 183.195 62.6377 182.678 61.7134 182.159C61.2446 181.9 60.7863 181.646 60.3333 181.395C59.88 181.157 59.4238 180.938 58.9836 180.714C58.5406 180.495 58.1057 180.273 57.6733 180.06C57.2462 179.849 56.813 179.676 56.3962 179.484C55.9766 179.297 55.5675 179.116 55.1637 178.938C54.7542 178.783 54.3579 178.629 53.9642 178.483C52.4057 177.867 50.9545 177.494 49.6773 177.213C48.3935 176.995 47.2824 176.935 46.3945 177.039C45.5143 177.154 44.8786 177.431 44.483 177.672C44.0794 177.917 43.9083 178.102 43.829 178.074C43.747 178.051 43.7983 177.722 44.1572 177.307C44.5108 176.889 45.2036 176.401 46.2014 176.113C47.1962 175.844 48.443 175.761 49.8672 175.864C51.2664 176.029 52.8603 176.308 54.5266 176.847C54.9472 176.981 55.3758 177.112 55.8149 177.248C56.2403 177.411 56.679 177.574 57.1254 177.748C57.5719 177.922 58.0318 178.083 58.4858 178.281C58.937 178.484 59.3963 178.685 59.8633 178.896C60.3304 179.107 60.8082 179.311 61.2855 179.542C61.7521 179.78 62.2266 180.015 62.709 180.261C63.6737 180.754 64.6625 181.239 65.6847 181.789C67.713 182.893 69.7921 184.131 71.8337 185.672C72.8517 186.447 73.8629 187.299 74.8015 188.342C75.2599 188.877 75.7095 189.455 76.0766 190.177C76.4282 190.878 76.7221 191.816 76.5115 192.846C76.4685 193.158 76.3223 193.437 76.2052 193.724L76.0797 194.04L75.7008 194.237C75.5531 194.314 75.47 194.344 75.3735 194.387C75.2769 194.43 75.1858 194.463 75.0947 194.496C74.9126 194.561 74.7332 194.621 74.5568 194.663C74.2064 194.767 73.8538 194.837 73.5041 194.902C72.8073 195.025 72.1224 195.088 71.4514 195.112C70.1045 195.143 68.789 195.063 67.5345 194.84C65.0117 194.435 62.7002 193.679 60.5711 192.843C58.4618 191.945 56.5209 191.007 54.7731 189.983C54.3361 189.727 53.9097 189.476 53.4858 189.234C53.27 189.107 53.083 189.002 52.8516 188.854C52.6546 188.717 52.4548 188.585 52.2631 188.451C51.4961 187.915 50.7742 187.382 50.1001 186.861C47.4064 184.757 45.4051 182.769 44.3777 181.063C43.8692 180.213 43.6175 179.437 43.609 178.89C43.6086 178.34 43.7813 178.062 43.8418 178.1L43.8265 178.065Z" fill="black"/>
<path d="M91.4647 18.282C91.4963 18.2986 91.4643 18.4494 91.3931 18.7004C91.3535 18.8271 91.3054 18.9829 91.241 19.1569C91.1818 19.3337 91.143 19.5614 91.0746 19.8071C90.857 20.7857 90.632 22.3035 91.1564 24.1608C91.6195 26.0195 92.8177 28.1297 94.5737 30.2911C96.3591 32.4479 98.7128 34.6615 101.524 36.8871C107.162 41.3333 114.579 45.8743 123.225 50.4034C131.874 54.9139 141.759 59.5028 152.495 63.7877L152.353 63.7396C155.836 64.5947 159.438 65.3248 163.074 65.5161C164.887 65.609 166.711 65.5534 168.431 65.1954C170.14 64.8451 171.724 64.107 172.654 62.8986C173.101 62.302 173.39 61.6091 173.519 60.8519C173.59 60.4734 173.6 60.083 173.591 59.6896C173.587 59.4929 173.569 59.296 173.541 59.1068C173.52 58.9283 173.474 58.6962 173.446 58.5947L173.582 58.9004C173.009 58.0437 172.443 57.1899 171.873 56.3413C171.585 55.9156 171.311 55.4902 171.021 55.0698C170.709 54.6649 170.403 54.2627 170.099 53.8553C169.478 53.0535 168.886 52.2337 168.254 51.4529C167.601 50.6876 166.949 49.9303 166.298 49.1731C163.639 46.2093 160.87 43.4293 157.927 40.9938C155.006 38.5295 152.006 36.3053 148.967 34.3354C147.444 33.3557 145.921 32.4292 144.385 31.5767C142.869 30.7141 141.308 29.9223 139.817 29.2541L139.738 29.2126L139.691 29.1877C133.007 25.3259 126.653 22.1536 120.801 19.895C114.958 17.6206 109.602 16.3392 105.131 15.9448C100.658 15.5158 97.1195 16.0863 94.847 16.8183C92.5559 17.5472 91.5242 18.3736 91.4567 18.2845C91.3676 18.211 92.3048 17.1674 94.6189 16.2025C96.9117 15.2398 100.579 14.4488 105.21 14.7056C109.838 14.9279 115.383 16.0803 121.396 18.2625C127.428 20.4212 133.939 23.5223 140.763 27.3498L140.641 27.2862C142.294 28.0055 143.862 28.7816 145.448 29.6536C147.034 30.5124 148.608 31.4453 150.183 32.4394C153.326 34.43 156.424 36.6854 159.443 39.1942C162.486 41.6823 165.355 44.5281 168.113 47.5709C168.785 48.3525 169.46 49.1289 170.14 49.9213C170.801 50.7239 171.413 51.5681 172.055 52.3942C172.375 52.8099 172.694 53.2256 173.011 53.6466C173.317 54.0753 173.601 54.5195 173.897 54.956C174.484 55.8342 175.075 56.7204 175.67 57.6094L175.761 57.7441L175.806 57.915C175.898 58.2649 175.936 58.4995 175.976 58.782C176.013 59.0564 176.038 59.3306 176.043 59.6017C176.06 60.1467 176.036 60.7042 175.941 61.2575C175.761 62.3564 175.309 63.4604 174.611 64.3814C173.891 65.3178 172.957 66.0346 171.977 66.546C170.996 67.0705 169.966 67.3683 168.953 67.5946C166.918 68.0153 164.909 68.0538 162.957 67.9554C159.053 67.7373 155.345 66.9653 151.769 66.0684L151.693 66.0483L151.629 66.0151C140.78 61.6243 130.913 56.9241 122.246 52.2432C113.593 47.5493 106.177 42.801 100.549 38.092C97.7432 35.7283 95.3922 33.3687 93.6258 31.0476C91.8863 28.7137 90.7104 26.4074 90.3412 24.3566C90.2148 23.8546 90.2053 23.3602 90.1552 22.9048C90.1691 22.4428 90.1318 22.0143 90.2029 21.6225C90.2474 21.2302 90.2967 20.8672 90.3904 20.5476C90.4656 20.225 90.5508 19.9345 90.6591 19.6896C90.7621 19.442 90.8353 19.2256 90.9371 19.0444C91.0389 18.8632 91.1294 18.7162 91.1981 18.5981C91.3461 18.3673 91.4278 18.2627 91.462 18.2873L91.4647 18.282Z" fill="black"/>
<path d="M98.9626 23.4624C99.0442 23.5119 98.5493 23.802 98.4166 24.6442C98.2892 25.4891 98.715 26.7785 99.6244 28.2478C100.526 29.7196 101.865 31.4208 103.6 33.2498L103.767 33.4179C103.799 33.4478 103.82 33.4721 103.838 33.4884L103.932 33.5648C104.058 33.671 104.181 33.7691 104.307 33.8753C104.561 34.0825 104.818 34.2976 105.08 34.5155C105.604 34.9514 106.141 35.4007 106.699 35.8612C107.268 36.3139 107.807 36.8244 108.44 37.2705C109.062 37.7242 109.706 38.1891 110.367 38.6702C115.623 42.5135 122.455 46.567 130.693 50.3118C134.825 52.1447 139.286 53.955 144.077 55.5968C148.86 57.2278 153.991 58.7596 159.346 59.9533L159.253 59.9381C160.504 60.0779 161.766 60.1569 163.009 60.1186C164.25 60.0855 165.49 59.9117 166.53 59.4919C167.04 59.2765 167.489 58.9961 167.783 58.6541C168.077 58.312 168.238 57.9407 168.246 57.5025C168.262 57.0751 168.127 56.5887 167.869 56.1716C167.621 55.7468 167.234 55.3961 166.896 55.259L166.777 55.2167L166.616 55.1789C166.547 55.1562 166.448 55.1914 166.661 55.1426C166.747 55.1204 166.798 55.0869 166.89 55.0277C166.984 54.9632 167.052 54.8716 167.104 54.7983C167.124 54.7615 167.151 54.7089 167.162 54.6746C167.173 54.6536 167.187 54.6273 167.188 54.6007C167.197 54.5318 167.199 54.5399 167.202 54.5213C167.198 54.492 167.211 54.6198 167.238 54.7479C167.297 55.0334 167.396 55.3941 167.471 55.8287C167.53 56.255 167.612 56.8147 167.312 57.5152C167.162 57.8655 166.879 58.1733 166.588 58.3825C166.297 58.5785 165.992 58.6998 165.738 58.761C165.214 58.8884 164.759 58.8977 164.339 58.8785C163.927 58.8568 163.555 58.796 163.165 58.7588L162.062 58.5688C159.172 58.0048 156.376 57.2355 153.528 56.4386C147.856 54.824 142.108 53.0218 136.272 51.0398C134.826 50.5426 133.327 50.031 131.864 49.4112C130.398 48.81 128.969 48.1404 127.545 47.4337C124.706 46.0179 121.925 44.4519 119.205 42.7436C117.188 41.4774 115.219 40.1565 113.328 38.7016C112.387 37.9597 111.444 37.2709 110.535 36.224C110.311 35.959 110.079 35.67 109.872 35.2327C109.775 34.9943 109.666 34.7423 109.649 34.3248C109.625 33.9231 109.829 33.3667 110.154 33.0678C110.471 32.7581 110.769 32.6393 111.015 32.554C111.267 32.4715 111.48 32.436 111.68 32.4135C112.091 32.3741 112.407 32.3726 112.822 32.4157L112.986 32.435L113.163 32.5077C122.245 36.3734 131.079 40.0827 139.582 43.5779C143.831 45.3175 147.995 47.0129 152.076 48.6109C154.118 49.4072 156.134 50.1898 158.129 50.9214C159.128 51.2846 160.12 51.637 161.103 51.9654C161.593 52.1215 162.085 52.2857 162.561 52.415C162.805 52.4891 163.04 52.5524 163.252 52.5966C163.356 52.6173 163.496 52.6573 163.56 52.664C163.613 52.665 163.669 52.6742 163.722 52.6885L163.269 52.8201C163.269 52.8201 163.278 52.8043 163.28 52.8123C163.248 52.8223 163.264 52.8439 163.229 52.8724C163.209 52.9092 163.203 52.9463 163.195 52.962C163.197 52.9966 163.192 52.9939 163.194 52.9886C163.2 52.9515 163.107 52.7078 162.967 52.4871C162.672 52.0241 162.237 51.5343 161.777 51.0785C160.85 50.1561 159.814 49.298 158.768 48.4742C156.673 46.8319 154.511 45.3289 152.379 43.8957C148.109 41.0318 143.942 38.457 139.995 36.078C138.024 34.8898 136.1 33.7531 134.236 32.6681C133.773 32.3983 133.307 32.1337 132.849 31.8666C132.385 31.6233 131.926 31.3827 131.468 31.1422C130.551 30.6611 129.652 30.1964 128.767 29.7319C127.892 29.2596 127.011 28.8377 126.146 28.4374C125.283 28.0319 124.439 27.6293 123.611 27.2351C121.949 26.4704 120.335 25.8316 118.806 25.1839C115.712 24.0365 112.915 23.052 110.408 22.541C110.095 22.4708 109.79 22.3982 109.491 22.3283C109.189 22.2636 108.891 22.2283 108.6 22.1825C108.018 22.0989 107.456 21.9917 106.917 21.9302C106.378 21.8952 105.865 21.8608 105.373 21.8242C104.882 21.7743 104.426 21.8367 103.984 21.8329C102.232 21.906 100.929 22.2885 100.132 22.6946C99.3258 23.1032 99.0234 23.4876 98.9762 23.4494C98.9235 23.4218 99.1506 22.9375 99.9508 22.3986C100.743 21.8622 102.104 21.3428 103.928 21.1596C104.383 21.137 104.866 21.0486 105.374 21.067C105.885 21.0801 106.419 21.0857 106.978 21.0972C107.536 21.1352 108.112 21.216 108.717 21.2789C109.02 21.317 109.331 21.3393 109.644 21.3962C109.954 21.4583 110.272 21.518 110.59 21.5776C113.19 22.0028 116.06 22.9118 119.244 23.9919C120.805 24.6031 122.464 25.2189 124.167 25.9446C125.012 26.3206 125.877 26.7076 126.761 27.0977C127.645 27.4877 128.548 27.8941 129.444 28.3509C130.346 28.7971 131.269 29.2544 132.207 29.7199C132.682 29.9555 133.156 30.1911 133.636 30.4294C134.1 30.686 134.574 30.9481 135.048 31.2102C136.941 32.2639 138.887 33.3718 140.89 34.5367C144.892 36.8637 149.115 39.3945 153.466 42.2335C155.64 43.6623 157.848 45.1555 160.033 46.8316C161.124 47.6723 162.215 48.5528 163.26 49.5705C163.783 50.086 164.297 50.6306 164.766 51.3389C164.988 51.7101 165.238 52.1032 165.327 52.7666C165.366 53.0889 165.324 53.529 165.107 53.9045C165.01 54.1018 164.874 54.2319 164.736 54.3805C164.601 54.4973 164.466 54.5875 164.32 54.6855L164.105 54.8272L163.871 54.8251C163.666 54.8182 163.459 54.8034 163.254 54.7832C163.066 54.7581 162.955 54.7266 162.798 54.6915C162.499 54.6349 162.234 54.5631 161.972 54.486C161.435 54.3448 160.932 54.1751 160.416 54.0184C159.395 53.684 158.383 53.3338 157.368 52.9756C155.34 52.2539 153.306 51.4816 151.253 50.693C147.142 49.113 142.958 47.4411 138.693 45.7198C130.163 42.2639 121.307 38.5834 112.204 34.7198L112.541 34.8091C112.381 34.7925 112.121 34.7899 111.96 34.8132C111.875 34.822 111.806 34.8392 111.782 34.8467C111.771 34.8412 111.773 34.8625 111.766 34.8384L111.658 34.6077C111.62 34.5405 111.573 34.4758 111.552 34.4381C111.516 34.3922 111.474 34.3436 111.456 34.3272C111.341 34.2133 111.342 34.2877 111.553 34.2841C111.619 34.2854 111.651 34.2754 111.726 34.261C111.811 34.2522 111.889 34.2325 111.961 34.2101C111.988 34.1973 112.052 34.1774 112.081 34.1727C112.081 34.1727 112.079 34.1779 112.084 34.194C112.122 34.2745 112.241 34.4576 112.395 34.6254C112.999 35.3313 113.925 36.0517 114.814 36.7394C116.611 38.1179 118.535 39.4087 120.503 40.642C123.156 42.309 125.874 43.8419 128.632 45.2215C130.005 45.9086 131.393 46.556 132.798 47.1321C134.186 47.7265 135.606 48.2099 137.06 48.7179C142.837 50.696 148.564 52.5137 154.177 54.1377C156.98 54.9311 159.776 55.7137 162.493 56.2608L163.5 56.4409C163.814 56.4712 164.148 56.5259 164.446 56.5479C164.738 56.5672 164.999 56.5433 165.16 56.5067C165.261 56.5061 165.251 56.4342 165.298 56.4989C165.381 56.6361 165.487 56.6649 165.336 56.5927C165.336 56.5927 165.239 56.5482 165.22 56.5452C165.22 56.5452 165.22 56.5452 165.223 56.5399C165.228 56.5294 165.229 56.5028 165.232 56.471C165.231 56.3966 165.233 56.2904 165.206 56.1623C165.168 55.9011 165.083 55.5885 165.003 55.191C164.967 54.9777 164.912 54.7614 164.925 54.379C164.935 54.2703 164.936 54.1906 164.974 54.0426C164.988 53.9765 165.011 53.9079 165.031 53.8445C165.056 53.7706 165.103 53.6813 165.152 53.6132C165.232 53.4607 165.378 53.3096 165.535 53.1906C165.691 53.0716 165.833 53.0187 165.994 52.9556C166.128 52.9185 166.237 52.9021 166.36 52.886C166.472 52.8777 166.544 52.8818 166.637 52.8837C166.828 52.8903 166.926 52.9215 167.072 52.9378L167.416 53.0246C167.538 53.0616 167.665 53.1147 167.784 53.157C168.726 53.5774 169.36 54.252 169.817 55.0079C170.266 55.7664 170.534 56.6513 170.501 57.5859C170.481 58.5207 170.067 59.4634 169.461 60.1311C168.855 60.8122 168.111 61.2327 167.389 61.5314C165.926 62.1046 164.481 62.2583 163.086 62.2909C161.691 62.3234 160.336 62.216 159.009 62.0559L158.953 62.0468L158.922 62.0302C137.002 56.7326 120.052 47.7532 109.62 39.6593C108.964 39.1543 108.329 38.6604 107.713 38.1828C107.086 37.713 106.545 37.1679 105.982 36.6914C105.432 36.2019 104.895 35.7259 104.38 35.2611C104.123 35.0326 103.867 34.8042 103.621 34.5813C103.498 34.4698 103.375 34.3584 103.249 34.2522L103.157 34.1706C103.115 34.1352 103.09 34.0948 103.063 34.0677L102.897 33.8863C101.187 31.9436 99.9059 30.1452 99.06 28.555C98.2138 26.9781 97.8361 25.533 98.0989 24.558C98.2197 24.0716 98.491 23.7849 98.6563 23.6235C98.8477 23.4893 98.9553 23.4251 98.9789 23.4442L98.9626 23.4624Z" fill="black"/>
<path d="M174.854 61.485C174.996 61.5464 174.518 62.958 173.532 65.4778C172.546 67.9976 171.05 71.6309 169.138 76.1457L168.971 76.5408L168.542 76.6037C167.787 76.7105 167.013 76.8275 166.213 76.944C165.413 77.0471 164.593 77.2137 163.744 77.2308C162.891 77.2798 162.02 77.3257 161.128 77.3739C160.683 77.4153 160.231 77.3927 159.776 77.3754C159.319 77.3634 158.856 77.3486 158.394 77.3338C157.926 77.3163 157.455 77.304 156.979 77.2889C156.503 77.2739 156.028 77.1924 155.539 77.1505C154.578 77.0352 153.585 76.9564 152.593 76.7979C151.601 76.6129 150.599 76.4223 149.575 76.234C148.554 76.0404 147.541 75.73 146.503 75.4803C142.367 74.3568 138.123 72.774 133.843 70.8505C129.577 68.9006 125.266 66.6523 120.904 64.2568C116.932 62.0792 113.117 59.8835 109.42 57.7832C107.574 56.7279 105.76 55.7289 103.981 54.6483C103.092 54.1147 102.21 53.6051 101.35 53.0667C100.503 52.5021 99.67 51.951 98.842 51.4026C95.5845 49.144 92.6027 46.7953 90.1309 44.2047C87.683 41.6199 85.6861 38.8158 84.6851 35.8302C84.1455 34.3606 83.9264 32.831 83.9956 31.3924C84.0043 31.2092 84.0155 31.0341 84.0215 30.8562C84.0407 30.6786 84.0785 30.504 84.1111 30.3267C84.1409 30.1546 84.1734 29.9772 84.2085 29.8079C84.2435 29.6386 84.3105 29.4726 84.3588 29.3035C84.4125 29.1372 84.4633 28.9762 84.517 28.8099C84.5917 28.6547 84.6611 28.4967 84.7358 28.3415C84.8802 28.015 85.0335 27.787 85.1821 27.5163C86.3827 25.4712 87.4836 23.7827 88.3899 22.4011C90.2182 19.6461 91.3229 18.1808 91.465 18.2688C91.6123 18.3595 90.7839 19.9898 89.2083 22.8907C88.4285 24.3387 87.4459 26.1094 86.3833 28.1733C86.2642 28.4259 86.102 28.7095 86.0205 28.9417C85.9704 29.0629 85.9202 29.184 85.8673 29.3105C85.8303 29.4452 85.7959 29.5747 85.7641 29.7122C85.7323 29.8497 85.6847 29.979 85.6634 30.122C85.6421 30.265 85.6261 30.4108 85.6101 30.5566C85.5941 30.7024 85.5676 30.8427 85.5569 30.9913L85.5565 31.4403C85.5555 32.6465 85.7841 33.9531 86.319 35.2393C87.2926 37.8418 89.2011 40.3916 91.5862 42.7759C93.9819 45.1657 96.9077 47.3777 100.098 49.5207C100.908 50.0394 101.731 50.5717 102.559 51.1068C103.404 51.6236 104.278 52.1091 105.152 52.6212C106.881 53.6423 108.741 54.6448 110.595 55.6844C114.314 57.7559 118.139 59.9438 122.082 62.0996C126.418 64.4813 130.668 66.7177 134.836 68.6629C139.013 70.579 143.121 72.1776 147.093 73.3297C148.091 73.5919 149.067 73.9094 150.048 74.1155C151.029 74.3216 151.991 74.5246 152.942 74.7221C153.894 74.893 154.837 74.992 155.76 75.1278C156.222 75.1825 156.678 75.2742 157.136 75.2995C157.593 75.3248 158.042 75.3526 158.491 75.3804C158.94 75.4081 159.384 75.4332 159.82 75.4607C160.256 75.4882 160.694 75.5238 161.118 75.4979C161.975 75.4783 162.816 75.4636 163.633 75.4431C164.452 75.4572 165.245 75.33 166.02 75.2609C166.796 75.1784 167.548 75.1035 168.281 75.0255L167.685 75.4836C169.789 71.063 171.514 67.5302 172.745 65.119C173.977 62.7078 174.719 61.4211 174.856 61.4797L174.854 61.485Z" fill="black"/>
<path d="M172.789 66.0871C172.795 66.0367 173.113 65.9954 173.715 66.1033C174.017 66.1547 174.39 66.25 174.807 66.4552C175.232 66.6445 175.686 66.97 176.087 67.4485C176.915 68.406 177.309 69.987 177.2 71.6931C177.107 73.4209 176.655 75.2953 175.822 77.3321L175.858 77.2372C175.64 78.0749 175.467 78.9694 175.442 79.8749C175.428 80.3237 175.465 80.7787 175.548 81.2108C175.589 81.4269 175.657 81.6302 175.728 81.8283C175.766 81.9221 175.812 82.0133 175.856 82.0966C175.879 82.1422 175.902 82.1746 175.926 82.207C175.941 82.2285 175.991 82.288 175.957 82.2501L176.145 83.0059C175.885 83.9756 175.46 84.9394 174.861 85.8384C174.554 86.2811 174.209 86.7098 173.813 87.1055C173.401 87.5063 173.017 87.8544 172.422 88.2063L172.352 88.25L172.243 88.2796C168.472 89.2785 164.235 89.3352 159.857 88.8284C155.465 88.3479 150.881 87.3374 146.159 86.0132C136.712 83.3569 126.716 79.4405 116.519 74.7548C113.915 73.5564 111.365 72.3325 108.868 71.0831C108.246 70.7701 107.627 70.4519 107.004 70.1389L106.082 69.6551C105.724 69.4804 105.469 69.2998 105.161 69.1181C103.98 68.3978 102.806 67.6883 101.646 66.9791C101.067 66.6218 100.483 66.2751 99.9172 65.9181C99.36 65.5454 98.8029 65.1726 98.251 64.8027C97.1471 64.0627 96.0486 63.3255 94.9631 62.6018C93.9132 61.8231 92.8711 61.0552 91.8448 60.2956C91.3358 59.9079 90.8103 59.5517 90.3228 59.1485C89.8354 58.7453 89.3452 58.3474 88.8603 57.9522C84.9862 54.7935 81.514 51.4836 78.7324 47.9461C78.0734 47.0373 77.3843 46.1729 76.7865 45.2627C76.2103 44.3369 75.6013 43.4609 75.1292 42.516C74.1067 40.6858 73.3409 38.789 72.7922 36.9525C72.6596 36.5007 72.5294 36.057 72.4045 35.6161L72.2191 34.9959L72.0232 34.511C71.861 34.218 71.7505 33.8651 71.7385 33.5035C71.7399 33.1422 71.8206 32.809 71.9454 32.5326C72.1951 31.9798 72.5345 31.6148 72.8547 31.2733C73.5109 30.6118 74.1746 30.1153 74.8062 29.6287C75.4431 29.1449 76.0501 28.6924 76.6173 28.2391C77.7621 27.3379 78.7526 26.4362 79.5334 25.5117C79.7373 25.2767 79.8958 25.0515 80.0919 24.8058C80.3041 24.555 80.5054 24.3121 80.7041 24.0744C80.9368 23.8613 81.1588 23.6559 81.378 23.4558C81.6206 23.2881 81.8632 23.1203 82.095 22.9604C83.0768 22.3827 84.0786 22.1641 84.9202 22.1228C85.7698 22.0791 86.4729 22.1865 87.0267 22.3094C88.1286 22.5791 88.6358 22.9189 88.6052 22.99C88.5744 23.0744 88.0163 22.8956 86.9459 22.7967C86.4119 22.7512 85.7497 22.7323 84.9973 22.8471C84.2448 22.9619 83.4018 23.2236 82.6122 23.768C82.4258 23.9183 82.2314 24.0711 82.0342 24.2291C81.8579 24.4115 81.6788 24.5991 81.4917 24.7893C81.3307 25.0065 81.1697 25.2237 81.0032 25.4514C80.8284 25.695 80.6449 25.9808 80.4485 26.2398C79.6492 27.3022 78.6354 28.3123 77.4944 29.2959C76.9265 29.7891 76.3268 30.2789 75.7215 30.7793C75.1215 31.2825 74.4974 31.7931 73.9896 32.3513C73.7397 32.6225 73.516 32.9208 73.421 33.166C73.3338 33.4219 73.3454 33.5151 73.4536 33.706C73.5536 33.9126 73.6945 34.2077 73.7937 34.4542C73.8693 34.6816 73.9424 34.901 74.018 35.1283C74.1564 35.5563 74.2973 35.9922 74.4408 36.4362C75.0128 38.1643 75.763 39.8987 76.7771 41.6039C77.2399 42.4769 77.8366 43.2995 78.406 44.1613C78.989 45.0102 79.671 45.8239 80.3125 46.6766C83.0367 50.003 86.4531 53.163 90.2763 56.201C90.7534 56.5854 91.2333 56.9646 91.7157 57.3517C92.1981 57.7389 92.7159 58.0843 93.2199 58.4559C94.2334 59.1887 95.2627 59.9298 96.2997 60.6817C97.3749 61.3865 98.4526 62.0994 99.5489 62.8153C100.093 63.1745 100.642 63.5365 101.197 63.9012C101.76 64.2501 102.331 64.5833 102.897 64.927C104.036 65.6119 105.186 66.3023 106.347 66.9983C106.631 67.1609 106.944 67.3719 107.2 67.4993L108.106 67.9749C108.721 68.277 109.337 68.5872 109.954 68.8975C112.43 70.1225 114.964 71.3381 117.542 72.5227C127.652 77.1694 137.53 81.1046 146.779 83.8313C151.402 85.1907 155.872 86.2413 160.1 86.7902C164.32 87.3682 168.329 87.3865 171.779 86.575L171.594 86.6456C171.718 86.5764 171.933 86.4347 172.104 86.3027C172.282 86.1682 172.452 86.0229 172.614 85.8668C172.937 85.5599 173.233 85.2259 173.495 84.8672C174.006 84.1497 174.39 83.3658 174.637 82.5632L174.825 83.3189C174.624 83.0863 174.581 82.9765 174.488 82.8072C174.409 82.6515 174.35 82.5068 174.289 82.3541C174.191 82.0545 174.111 81.758 174.069 81.4675C173.976 80.8891 173.962 80.3255 173.999 79.7949C174.069 78.7256 174.31 77.7528 174.588 76.8525L174.602 76.7996L174.624 76.7576C175.461 74.9441 176.006 73.1379 176.183 71.5952C176.38 70.0423 176.13 68.7114 175.539 67.865C174.954 67.0082 174.146 66.6515 173.626 66.439C173.09 66.2314 172.79 66.1482 172.8 66.0793L172.789 66.0871Z" fill="black"/>
<path d="M106.434 68.472C106.453 68.4352 106.815 68.5781 107.501 68.8844C108.19 69.1987 109.208 69.6659 110.535 70.275C113.2 71.4986 117.131 73.306 122.263 75.4756C127.399 77.6265 133.729 80.1766 141.251 82.6076C145.013 83.8164 149.078 84.9704 153.449 85.9021C155.633 86.3507 157.892 86.7716 160.223 87.0159C162.55 87.2708 164.95 87.4103 167.379 87.2634L169.142 87.156L168.139 88.6074C148.059 117.595 121.065 156.343 90.7889 199.605L90.5675 199.924L90.206 200.05C85.6588 201.633 80.8297 201.768 76.1492 201.351C71.4534 200.899 66.8294 199.874 62.2885 198.524C60.2617 197.917 58.2651 197.252 56.2964 196.521C55.3107 196.158 54.336 195.774 53.3615 195.376C52.8756 195.175 52.3898 194.974 51.9069 194.754C51.7458 194.69 51.6301 194.616 51.5222 194.552L51.1799 194.359L50.4925 193.979C49.5759 193.471 48.6674 192.961 47.7509 192.453C47.2954 192.194 46.8341 191.959 46.3949 191.681L45.0772 190.849C44.1988 190.295 43.3229 189.748 42.4498 189.196C41.5904 188.618 40.7611 187.995 39.9181 187.399C36.6003 184.948 33.4063 182.273 30.8984 178.906C30.3159 178.031 29.6524 177.22 29.1914 176.254L28.8132 175.553C28.6872 175.319 28.5583 175.091 28.4727 174.831L27.8885 173.331L27.4974 171.745C27.4277 171.199 27.3447 170.653 27.3284 170.094C27.3335 169.534 27.3305 168.976 27.4369 168.401C27.4634 168.12 27.5406 167.832 27.623 167.547C27.6576 167.404 27.7002 167.259 27.7588 167.109C27.8147 166.964 27.8598 166.827 27.9702 166.616L27.8952 166.785C46.5287 114.714 62.7398 69.7454 73.7778 39.4807L74.2177 38.2835L75.0242 39.2698C75.2454 39.54 75.4666 39.8102 75.6825 40.0777L75.7397 40.1479L75.7756 40.2204C77.1899 43.1613 79.0211 45.7176 80.9109 47.9827C82.8087 50.2454 84.7999 52.2018 86.7176 53.9654C90.5803 57.4533 94.179 60.1122 97.1469 62.2055C97.8903 62.7229 98.5943 63.2129 99.2536 63.6727C99.9212 64.1168 100.549 64.5335 101.13 64.9121C101.709 65.2959 102.242 65.6495 102.728 65.9783C103.223 66.2913 103.67 66.5795 104.067 66.8347C105.66 67.8583 106.475 68.4197 106.444 68.4775C106.414 68.5353 105.534 68.0869 103.869 67.1734C103.453 66.9417 102.989 66.6851 102.476 66.3956C101.968 66.0956 101.415 65.7655 100.818 65.4052C100.221 65.0449 99.5734 64.6517 98.884 64.2364C98.2056 63.8 97.4825 63.3336 96.7148 62.8369C93.6682 60.8297 89.9669 58.2511 85.9813 54.7926C83.9993 53.0489 81.9388 51.0964 79.9457 48.8105C77.9658 46.5249 76.0212 43.9159 74.4896 40.8397L74.5828 40.9824C74.3589 40.7175 74.1324 40.4445 73.906 40.1715L75.1444 39.963C64.5532 70.3883 48.6698 115.475 30.1603 167.604L30.0853 167.773L30.0154 167.957C29.982 168.034 29.9565 168.121 29.9359 168.224C29.8846 168.412 29.8332 168.599 29.8135 168.803C29.7343 169.198 29.745 169.626 29.7399 170.045C29.7534 170.468 29.8279 170.903 29.8732 171.329L30.1926 172.616L30.6854 173.88C30.7532 174.097 30.8692 174.298 30.98 174.497L31.3119 175.107C31.7009 175.941 32.3204 176.682 32.8354 177.468C35.1124 180.52 38.1592 183.09 41.3538 185.443C42.168 186.018 42.9631 186.616 43.7989 187.175C44.6485 187.708 45.5033 188.244 46.3581 188.779L47.6416 189.587C48.0731 189.853 48.5185 190.08 48.9582 190.331C49.8431 190.822 50.7228 191.31 51.6077 191.802L52.274 192.171L52.6058 192.359C52.7218 192.419 52.8269 192.488 52.9062 192.516L54.2975 193.105C55.2376 193.491 56.1912 193.864 57.1479 194.218C59.0664 194.93 61.018 195.578 62.9919 196.171C67.4111 197.484 71.8973 198.477 76.3753 198.908C80.8325 199.316 85.3534 199.153 89.3838 197.748L88.8009 198.193C119.135 154.975 146.347 116.375 166.744 87.6144L167.496 88.9609C164.929 89.089 162.442 88.9105 160.047 88.6197C157.65 88.3342 155.354 87.8807 153.136 87.3942C148.711 86.387 144.618 85.158 140.845 83.8825C133.304 81.3077 126.997 78.6226 121.896 76.3289C116.804 74.0194 112.926 72.0722 110.331 70.7039C109.029 70.0209 108.049 69.4801 107.396 69.0975C106.749 68.7175 106.425 68.501 106.445 68.4642L106.434 68.472Z" fill="black"/>
</g>
</svg>
